# xmcd CD database file
#
# Track frame offsets:
#	150
#	8420
#	25389
#	36127
#	47299
#	60155
#	71014
#	83757
#	95322
#	108447
#	121515
#	134110
#	146331
#	156305
#	167662
#	177674
#	188705
#	207878
#	220700
#	242421
#	254492
#
# Disc length: 3603 seconds
#
# Revision: 0
# Processed by: cddbd v1.5.2PL0 Copyright (c) Steve Scherf et al.
# Submitted via: CDex 1.70beta2
#
DISCID=130e1115
DTITLE=Various Artist - Country Classics 2-
DYEAR=1900
DGENRE=Country
TTITLE0=Johnny Cash_guess things happen that way
TTITLE1=johnny ashcroft_little boy lost
TTITLE2=hank locklin_please help me, I'm falling
TTITLE3=floyd cramer_last date
TTITLE4=johnny horton_north to alaska
TTITLE5=faron young_Hello walls
TTITLE6=patsy cline_I fall to pieces
TTITLE7=don gibson_Sea of heartbreak
TTITLE8=johnny tillotson_Send me the pillow you dream on
TTITLE9=marrty robbins_Devil Woman
TTITLE10=bobby bare_Detroit City
TTITLE11=frank ifield_The wayward wind
TTITLE12=Ned millar_From a Jack to a king
TTITLE13=Dave dudley_Cowboy boots
TTITLE14=george hamilton IV_Abilene
TTITLE15=roger millar_King of the Road
TTITLE16=Bobby gentry_Ode to Billie joe
TTITLE17=nancy sinatra and Lee hazlewood_Jackson
TTITLE18=earl scruggs and Friends_Foggy Mountain Breakdown
TTITLE19=glen campbell_Galveston
TTITLE20=Ray stevens_Everything is beautiful
EXTD=
EXTT0=
EXTT1=
EXTT2=
EXTT3=
EXTT4=
EXTT5=
EXTT6=
EXTT7=
EXTT8=
EXTT9=
EXTT10=
EXTT11=
EXTT12=
EXTT13=
EXTT14=
EXTT15=
EXTT16=
EXTT17=
EXTT18=
EXTT19=
EXTT20=
PLAYORDER=
